<svg width="594" height="115" viewBox="0 0 594 115" fill="none" xmlns="http://www.w3.org/2000/svg">
<path d="M133.904 70.896C130.981 70.896 128.443 70.064 126.288 68.4C124.133 66.736 122.704 64.5173 122 61.744L125.712 60.88C126.16 62.6933 127.131 64.2187 128.624 65.456C130.117 66.6933 131.888 67.312 133.936 67.312C135.237 67.312 136.539 67.0133 137.84 66.416C139.163 65.7973 140.197 64.784 140.944 63.376C141.477 62.3733 141.787 61.3173 141.872 60.208C141.957 59.0773 142 57.7227 142 56.144V23.92H145.712V56.144C145.712 57.36 145.701 58.48 145.68 59.504C145.659 60.528 145.541 61.5093 145.328 62.448C145.136 63.3867 144.773 64.336 144.24 65.296C143.173 67.1733 141.723 68.5813 139.888 69.52C138.075 70.4373 136.08 70.896 133.904 70.896ZM169.531 70.96C166.096 70.96 163.184 70.1813 160.795 68.624C158.406 67.0667 156.582 64.912 155.323 62.16C154.064 59.408 153.435 56.24 153.435 52.656C153.435 49.0507 154.075 45.8827 155.355 43.152C156.635 40.4 158.47 38.2667 160.859 36.752C163.27 35.2373 166.16 34.48 169.531 34.48C172.966 34.48 175.878 35.2587 178.267 36.816C180.678 38.352 182.502 40.4853 183.739 43.216C184.998 45.9467 185.627 49.0933 185.627 52.656C185.627 56.304 184.998 59.504 183.739 62.256C182.48 64.9867 180.646 67.12 178.235 68.656C175.824 70.192 172.923 70.96 169.531 70.96ZM169.531 67.376C173.606 67.376 176.646 66.0107 178.651 63.28C180.678 60.5493 181.691 57.008 181.691 52.656C181.691 48.2187 180.678 44.6773 178.651 42.032C176.624 39.3867 173.584 38.064 169.531 38.064C166.779 38.064 164.507 38.6933 162.715 39.952C160.923 41.1893 159.579 42.9067 158.683 45.104C157.808 47.28 157.371 49.7973 157.371 52.656C157.371 57.0933 158.395 60.656 160.443 63.344C162.512 66.032 165.542 67.376 169.531 67.376ZM217.98 70V52.016C217.98 49.84 217.756 47.8987 217.308 46.192C216.881 44.4853 216.22 43.0347 215.324 41.84C214.449 40.6453 213.34 39.7387 211.996 39.12C210.673 38.5013 209.105 38.192 207.292 38.192C205.414 38.192 203.782 38.5227 202.396 39.184C201.03 39.824 199.9 40.7307 199.004 41.904C198.129 43.0773 197.468 44.4747 197.02 46.096C196.593 47.696 196.38 49.4453 196.38 51.344L193.468 50.992C193.468 47.2587 194.097 44.1867 195.356 41.776C196.636 39.344 198.353 37.552 200.508 36.4C202.662 35.2267 205.084 34.64 207.772 34.64C209.67 34.64 211.366 34.9173 212.86 35.472C214.374 36.0267 215.686 36.816 216.796 37.84C217.905 38.8427 218.822 40.0373 219.548 41.424C220.273 42.7893 220.806 44.2933 221.148 45.936C221.51 47.5787 221.692 49.296 221.692 51.088V70H217.98ZM192.668 70V35.44H196.028V43.216H196.38V70H192.668ZM244.095 70.96C240.788 70.96 237.93 70.224 235.519 68.752C233.108 67.2587 231.242 65.1573 229.919 62.448C228.596 59.7173 227.935 56.496 227.935 52.784C227.935 49.008 228.586 45.7547 229.887 43.024C231.21 40.272 233.066 38.16 235.455 36.688C237.866 35.216 240.724 34.48 244.031 34.48C247.38 34.48 250.239 35.248 252.607 36.784C254.996 38.2987 256.81 40.496 258.047 43.376C259.306 46.256 259.903 49.7227 259.839 53.776H255.999V52.496C255.892 47.76 254.826 44.1547 252.799 41.68C250.772 39.2053 247.871 37.968 244.095 37.968C240.191 37.968 237.172 39.2587 235.039 41.84C232.927 44.4 231.871 48.0267 231.871 52.72C231.871 57.3707 232.927 60.976 235.039 63.536C237.172 66.096 240.17 67.376 244.031 67.376C246.698 67.376 249.023 66.7573 251.007 65.52C253.012 64.2613 254.602 62.4693 255.775 60.144L259.103 61.616C257.716 64.6027 255.711 66.9067 253.087 68.528C250.463 70.1493 247.466 70.96 244.095 70.96ZM230.463 53.776V50.448H257.759V53.776H230.463ZM279.686 70.896C275.696 70.896 272.4 70.0533 269.798 68.368C267.216 66.6827 265.616 64.336 264.998 61.328L268.774 60.688C269.307 62.736 270.566 64.368 272.55 65.584C274.534 66.8 276.966 67.408 279.846 67.408C282.704 67.408 284.976 66.8 286.662 65.584C288.347 64.368 289.19 62.704 289.19 60.592C289.19 59.44 288.923 58.5013 288.39 57.776C287.878 57.0293 286.854 56.3467 285.318 55.728C283.782 55.1093 281.499 54.384 278.47 53.552C275.27 52.6987 272.763 51.8453 270.95 50.992C269.158 50.1387 267.888 49.168 267.141 48.08C266.416 46.992 266.054 45.6587 266.054 44.08C266.054 42.1813 266.598 40.5173 267.686 39.088C268.774 37.6373 270.288 36.5067 272.23 35.696C274.192 34.8853 276.454 34.48 279.014 34.48C281.574 34.48 283.878 34.9067 285.926 35.76C287.974 36.592 289.627 37.7653 290.886 39.28C292.144 40.7733 292.87 42.512 293.062 44.496L289.286 45.2C288.923 42.9813 287.803 41.232 285.926 39.952C284.048 38.6507 281.702 37.9893 278.885 37.968C276.219 37.9253 274.043 38.4587 272.358 39.568C270.672 40.656 269.83 42.096 269.83 43.888C269.83 44.912 270.118 45.7867 270.694 46.512C271.291 47.216 272.336 47.8667 273.83 48.464C275.323 49.0613 277.435 49.7013 280.166 50.384C283.494 51.2373 286.086 52.112 287.942 53.008C289.819 53.904 291.142 54.96 291.91 56.176C292.678 57.3707 293.062 58.8533 293.062 60.624C293.062 63.824 291.867 66.3413 289.478 68.176C287.11 69.9893 283.846 70.896 279.686 70.896ZM312.98 70V23.92H330.612C333.001 23.92 335.145 24.432 337.044 25.456C338.964 26.4587 340.468 27.8347 341.556 29.584C342.665 31.3333 343.22 33.3067 343.22 35.504C343.22 37.9787 342.537 40.208 341.172 42.192C339.807 44.1547 337.993 45.5307 335.732 46.32L335.604 44.784C338.633 45.7013 341.033 47.2373 342.804 49.392C344.596 51.5253 345.492 54.1707 345.492 57.328C345.492 59.9733 344.905 62.2453 343.732 64.144C342.58 66.0213 340.98 67.472 338.932 68.496C336.884 69.4987 334.559 70 331.956 70H312.98ZM316.692 66.384H330.74C332.788 66.384 334.623 66.032 336.244 65.328C337.887 64.624 339.177 63.6107 340.116 62.288C341.076 60.9653 341.556 59.3653 341.556 57.488C341.556 55.632 341.119 53.9573 340.244 52.464C339.391 50.9493 338.228 49.7547 336.756 48.88C335.284 47.984 333.631 47.536 331.796 47.536H316.692V66.384ZM316.692 43.984H330.58C332.18 43.984 333.641 43.6107 334.964 42.864C336.308 42.1173 337.375 41.104 338.164 39.824C338.953 38.5227 339.348 37.04 339.348 35.376C339.348 33.008 338.505 31.0987 336.82 29.648C335.156 28.1973 333.076 27.472 330.58 27.472H316.692V43.984ZM366.031 70.96C362.596 70.96 359.684 70.1813 357.295 68.624C354.906 67.0667 353.082 64.912 351.823 62.16C350.564 59.408 349.935 56.24 349.935 52.656C349.935 49.0507 350.575 45.8827 351.855 43.152C353.135 40.4 354.97 38.2667 357.359 36.752C359.77 35.2373 362.66 34.48 366.031 34.48C369.466 34.48 372.378 35.2587 374.767 36.816C377.178 38.352 379.002 40.4853 380.239 43.216C381.498 45.9467 382.127 49.0933 382.127 52.656C382.127 56.304 381.498 59.504 380.239 62.256C378.98 64.9867 377.146 67.12 374.735 68.656C372.324 70.192 369.423 70.96 366.031 70.96ZM366.031 67.376C370.106 67.376 373.146 66.0107 375.151 63.28C377.178 60.5493 378.191 57.008 378.191 52.656C378.191 48.2187 377.178 44.6773 375.151 42.032C373.124 39.3867 370.084 38.064 366.031 38.064C363.279 38.064 361.007 38.6933 359.215 39.952C357.423 41.1893 356.079 42.9067 355.183 45.104C354.308 47.28 353.871 49.7973 353.871 52.656C353.871 57.0933 354.895 60.656 356.943 63.344C359.012 66.032 362.042 67.376 366.031 67.376ZM402.448 70.96C399.184 70.96 396.421 70.16 394.16 68.56C391.92 66.9387 390.202 64.752 389.008 62C387.834 59.2267 387.248 56.112 387.248 52.656C387.248 49.2427 387.834 46.16 389.008 43.408C390.181 40.656 391.866 38.48 394.064 36.88C396.282 35.28 398.96 34.48 402.096 34.48C405.317 34.48 408.037 35.2693 410.256 36.848C412.474 38.4267 414.149 40.592 415.28 43.344C416.41 46.0747 416.976 49.1787 416.976 52.656C416.976 56.112 416.41 59.216 415.28 61.968C414.149 64.72 412.506 66.9067 410.352 68.528C408.197 70.1493 405.562 70.96 402.448 70.96ZM402.672 67.44C405.253 67.44 407.397 66.8 409.104 65.52C410.832 64.2187 412.112 62.4587 412.944 60.24C413.797 58 414.224 55.472 414.224 52.656C414.224 49.8187 413.797 47.2907 412.944 45.072C412.09 42.8533 410.81 41.1253 409.104 39.888C407.397 38.6293 405.274 38 402.736 38C400.112 38 397.946 38.6507 396.24 39.952C394.533 41.232 393.264 42.9813 392.432 45.2C391.6 47.3973 391.184 49.8827 391.184 52.656C391.184 55.4507 391.61 57.968 392.464 60.208C393.338 62.4267 394.618 64.1867 396.304 65.488C398.01 66.7893 400.133 67.44 402.672 67.44ZM414.224 70V43.376H413.904V23.92H417.583V70H414.224ZM431.599 85.36L438.319 67.28L438.383 72.656L423.247 35.44H427.183L440.175 67.76H438.127L449.935 35.44H453.807L435.439 85.36H431.599ZM466.965 70L456.405 35.44H460.181L468.853 63.824L477.525 35.44H481.077L489.781 63.824L498.485 35.44H502.197L491.637 70H488.181L479.317 41.232L470.421 70H466.965ZM520.906 70.96C517.471 70.96 514.559 70.1813 512.17 68.624C509.781 67.0667 507.957 64.912 506.698 62.16C505.439 59.408 504.81 56.24 504.81 52.656C504.81 49.0507 505.45 45.8827 506.73 43.152C508.01 40.4 509.845 38.2667 512.234 36.752C514.645 35.2373 517.535 34.48 520.906 34.48C524.341 34.48 527.253 35.2587 529.642 36.816C532.053 38.352 533.877 40.4853 535.114 43.216C536.373 45.9467 537.002 49.0933 537.002 52.656C537.002 56.304 536.373 59.504 535.114 62.256C533.855 64.9867 532.021 67.12 529.61 68.656C527.199 70.192 524.298 70.96 520.906 70.96ZM520.906 67.376C524.981 67.376 528.021 66.0107 530.026 63.28C532.053 60.5493 533.066 57.008 533.066 52.656C533.066 48.2187 532.053 44.6773 530.026 42.032C527.999 39.3867 524.959 38.064 520.906 38.064C518.154 38.064 515.882 38.6933 514.09 39.952C512.298 41.1893 510.954 42.9067 510.058 45.104C509.183 47.28 508.746 49.7973 508.746 52.656C508.746 57.0933 509.77 60.656 511.818 63.344C513.887 66.032 516.917 67.376 520.906 67.376ZM544.043 70V35.44H547.403V43.728L546.571 42.64C546.955 41.6587 547.435 40.752 548.01 39.92C548.608 39.0667 549.216 38.3733 549.835 37.84C550.752 36.9867 551.829 36.3467 553.067 35.92C554.304 35.472 555.552 35.216 556.811 35.152C558.069 35.0667 559.211 35.1627 560.235 35.44V38.928C558.869 38.608 557.419 38.544 555.883 38.736C554.347 38.928 552.907 39.5893 551.563 40.72C550.389 41.744 549.536 42.9387 549.003 44.304C548.469 45.648 548.128 47.0667 547.979 48.56C547.829 50.032 547.755 51.472 547.755 52.88V70H544.043ZM566.293 70V23.92H570.005V52.08L586.357 35.44H591.509L574.389 52.72L593.941 70H588.213L570.005 53.36V70H566.293Z" fill="#3F88C5"/>
<path d="M10.3016 84.75L57.5 3L104.698 84.75H10.3016Z" stroke="#3F88C5" stroke-width="3"/>
<path d="M55.9512 36.3944C55.7829 36.4328 55.4001 36.5552 55.109 36.6701C52.3146 37.7802 51.0821 41.0493 52.4448 43.7442C52.6899 44.2341 53.2945 45.0151 53.6086 45.2524C53.9224 45.4972 53.8997 45.5128 53.0575 45.6964C52.1769 45.8879 49.7578 46.6994 49.3443 46.9368C48.7932 47.2584 48.257 47.8554 47.9432 48.4909C47.7902 48.8047 47.0167 50.8872 46.2361 53.1227L44.8043 57.1803L44.7965 58.0225C44.7887 58.7728 44.8118 58.9027 44.9801 59.2475C45.2174 59.7374 45.6999 60.2121 46.2204 60.4878C46.9324 60.8628 47.8895 60.771 49.413 60.1662C49.8802 59.99 49.8955 59.9826 49.7574 60.1356C49.5738 60.3423 47.8436 61.4908 46.1439 62.5397C43.8394 63.9561 43.2192 64.7524 43.2192 66.2607C43.2192 67.876 44.2375 68.9939 46.1667 69.5145C46.6798 69.6522 47.1391 69.66 56.5024 69.66C65.6361 69.66 66.3556 69.6525 67.0906 69.5223C68.5989 69.2544 69.4717 68.8637 70.1149 68.167C70.6049 67.6387 70.781 67.1719 70.781 66.4443C70.781 65.2804 70.3444 64.3924 69.3877 63.6192C69.1657 63.4356 68.2086 62.8076 67.2593 62.2259C65.6898 61.2613 63.9902 60.0822 64.0667 60.0057C64.082 59.9904 64.3118 60.0594 64.5872 60.1665C65.5671 60.5568 66.1339 60.6949 66.7615 60.6949C67.2899 60.7027 67.4276 60.6717 67.7798 60.4881C68.3004 60.2124 68.7828 59.7378 69.0201 59.2478C69.1884 58.9034 69.2116 58.7732 69.2041 58.0228L69.1963 57.1806L67.7645 53.1231C66.9761 50.8872 66.2182 48.82 66.0723 48.5293C65.5518 47.442 64.9469 46.9674 63.4618 46.4699C62.5737 46.1714 61.3715 45.8114 60.4528 45.5819L60.1159 45.4901L60.4681 45.1762C62.1219 43.668 62.5812 41.2258 61.5935 39.1892C60.9655 37.8955 59.9935 37.0533 58.5311 36.5324C58.0565 36.3563 56.5024 36.2795 55.9512 36.3944ZM57.7046 37.9332C58.7688 38.1552 59.6953 38.8825 60.1927 39.9008C60.4838 40.4751 60.4838 40.4904 60.4838 41.4012C60.4838 42.3121 60.4763 42.3352 60.2005 42.9248C58.9068 45.6349 55.0941 45.6349 53.8 42.9248C53.5243 42.3352 53.5168 42.3124 53.5168 41.4012C53.5168 40.49 53.5168 40.4747 53.8079 39.9008C54.5426 38.4004 56.1273 37.6041 57.7046 37.9332ZM58.2098 46.8144C59.6338 46.9674 60.5677 47.1819 62.6581 47.8554C63.9059 48.2536 64.2581 48.4756 64.595 49.0726C64.8783 49.5779 67.6346 57.4482 67.6958 57.9154C67.7496 58.3441 67.5734 58.7575 67.244 58.9949C66.8458 59.2706 66.4096 59.171 63.7756 58.1911C61.3946 57.3108 59.5188 56.6444 58.3016 56.2463C57.3983 55.9553 56.602 55.9553 55.6986 56.2463C54.4814 56.6444 52.6056 57.3105 50.2246 58.1911C47.591 59.171 47.1544 59.2706 46.7566 58.9949C46.4197 58.7497 46.2514 58.3441 46.3126 57.9001C46.3738 57.4407 49.1148 49.6163 49.3981 49.0958C49.7809 48.3838 50.0488 48.2383 52.047 47.6181C54.443 46.8756 56.4106 46.6151 58.2098 46.8144ZM59.1054 58.1836C60.0319 58.4974 61.0502 58.8497 61.364 58.9646C61.9152 59.1713 61.9383 59.1866 62.0073 59.4777C62.1375 60.0978 62.3901 60.5419 62.9413 61.0855C63.6305 61.7747 64.2812 62.234 66.4708 63.5889C67.4507 64.186 68.3925 64.814 68.5608 64.9823C69.0127 65.4032 69.1963 65.8166 69.2041 66.3834C69.2116 66.8047 69.1888 66.8812 68.9821 67.0954C68.4003 67.708 67.3742 67.976 65.154 68.0984C64.2122 68.1521 61.5864 68.1749 58.302 68.1521C53.0041 68.1215 52.981 68.1215 52.6593 67.9532C52.269 67.7539 52.047 67.4785 51.9396 67.0726C51.7713 66.4293 51.978 66.0159 52.644 65.6793C53.4709 65.2583 54.2672 65.0744 58.2636 64.4162C61.464 63.8878 61.6248 63.8497 61.8237 63.5893C62.1147 63.2296 61.992 62.6934 61.5711 62.4639L61.3032 62.3184L58.8225 62.724C54.3743 63.4438 53.0881 63.727 52.1082 64.1938C50.891 64.7834 50.3395 65.5412 50.3395 66.6438C50.3395 67.1569 50.4238 67.5931 50.6074 68.0372C50.6612 68.1596 50.569 68.1674 49.2981 68.1674C47.0395 68.1674 46.1592 68.0144 45.432 67.5091C44.9648 67.1875 44.789 66.8431 44.7965 66.2535C44.7965 65.955 44.8502 65.664 44.9189 65.5263C45.1334 65.1128 45.7533 64.6229 47.0089 63.8497C50.7832 61.5224 51.7325 60.7183 51.9545 59.6619C52.0004 59.4321 52.0616 59.2257 52.0922 59.1948C52.1687 59.1105 55.7669 57.8548 56.418 57.6865C56.7166 57.6022 57.0688 57.5563 57.1912 57.5794C57.3218 57.6019 58.1792 57.8698 59.1054 58.1836Z" fill="#3F88C5"/>
<path d="M56.5791 48.1924C55.8672 48.3991 55.4231 49.1801 54.9332 51.0939C54.7571 51.7906 54.5809 52.4261 54.5503 52.5104C54.5044 52.6253 53.9992 52.8548 52.5522 53.4216C51.4805 53.835 50.5309 54.2332 50.4316 54.2944C49.8114 54.7 50.0487 55.6877 50.7685 55.6877C51.067 55.6877 55.2701 54.0951 55.6302 53.8425C55.8906 53.6589 55.9212 53.5668 56.3806 51.7753C56.7634 50.2671 56.9011 49.8689 57.0085 49.8689C57.1082 49.8689 57.2918 50.4507 57.6899 52.0126C57.8966 52.8317 58.1339 53.5899 58.2104 53.697C58.3175 53.8425 58.8996 54.1026 60.5683 54.7612C61.7855 55.2436 62.9035 55.6493 63.049 55.6646C63.1945 55.6873 63.4087 55.6646 63.5158 55.6261C63.7531 55.5343 63.9983 55.0597 63.9371 54.8071C63.83 54.3862 63.5848 54.2481 61.5176 53.4444L59.4888 52.6481L59.4045 52.3496C59.3508 52.1887 59.1825 51.5533 59.0295 50.9409C58.5623 49.1342 58.1183 48.3838 57.3836 48.1849C57.0691 48.0928 56.893 48.1006 56.5791 48.1924Z" fill="#3F88C5"/>
</svg>
